<?xml version="1.0" encoding="UTF-8" standalone="no"?>
<!DOCTYPE svg PUBLIC "-//W3C//DTD SVG 1.1//EN" "http://www.w3.org/Graphics/SVG/1.1/DTD/svg11.dtd">
<svg width="100%" height="100%" viewBox="0 0 203 42" version="1.1" xmlns="http://www.w3.org/2000/svg" xmlns:xlink="http://www.w3.org/1999/xlink" xml:space="preserve" xmlns:serif="http://www.serif.com/" style="fill-rule:evenodd;clip-rule:evenodd;stroke-linejoin:round;stroke-miterlimit:2;">
    <g transform="matrix(2.64387,0,0,2.64387,-154.54,-96.7101)">
        <path d="M58.468,44.361L61.084,36.717L62.494,36.717L65.032,44.361L63.832,44.361L63.238,42.537L60.286,42.537L59.668,44.361L58.468,44.361ZM60.574,41.661L62.956,41.661L61.768,38.091L60.574,41.661Z" style="fill-rule:nonzero;"/>
        <rect x="66.448" y="36.717" width="1.14" height="7.644" style="fill-rule:nonzero;"/>
        <path d="M72.598,44.517C71.922,44.517 71.339,44.352 70.849,44.022C70.359,43.692 69.98,43.226 69.712,42.624C69.444,42.022 69.31,41.315 69.31,40.503C69.31,39.647 69.452,38.928 69.736,38.346C70.02,37.764 70.411,37.324 70.909,37.026C71.407,36.728 71.97,36.579 72.598,36.579C73.442,36.579 74.114,36.788 74.614,37.206C75.114,37.624 75.446,38.167 75.61,38.835L74.392,39.069C74.248,38.625 74.02,38.27 73.708,38.004C73.396,37.738 73.026,37.605 72.598,37.605C72.222,37.605 71.878,37.713 71.566,37.929C71.254,38.145 71.004,38.468 70.816,38.898C70.628,39.328 70.534,39.863 70.534,40.503C70.534,41.095 70.612,41.614 70.768,42.06C70.924,42.506 71.154,42.853 71.458,43.101C71.762,43.349 72.142,43.473 72.598,43.473C73.154,43.473 73.592,43.324 73.912,43.026C74.232,42.728 74.392,42.339 74.392,41.859L75.622,41.859C75.622,42.419 75.497,42.896 75.247,43.29C74.997,43.684 74.646,43.987 74.194,44.199C73.742,44.411 73.21,44.517 72.598,44.517Z" style="fill-rule:nonzero;"/>
        <path d="M80.164,44.361L80.164,36.717L84.964,36.717L84.964,37.701L81.304,37.701L81.304,40.029L84.748,40.029L84.748,41.013L81.304,41.013L81.304,43.365L84.964,43.365L84.964,44.361L80.164,44.361Z" style="fill-rule:nonzero;"/>
        <path d="M86.338,44.361L89.032,40.563L86.32,36.717L87.712,36.717L89.794,39.681L91.666,36.717L93.046,36.717L90.424,40.545L93.214,44.361L91.798,44.361L89.674,41.451L87.718,44.361L86.338,44.361Z" style="fill-rule:nonzero;"/>
        <path d="M94.834,44.361L94.834,36.717L97.396,36.717C98.248,36.717 98.904,36.929 99.364,37.353C99.824,37.777 100.054,38.363 100.054,39.111C100.054,39.851 99.824,40.432 99.364,40.854C98.904,41.276 98.248,41.487 97.396,41.487L95.986,41.487L95.986,44.361L94.834,44.361ZM95.986,40.491L97.396,40.491C97.884,40.491 98.254,40.365 98.506,40.113C98.758,39.861 98.884,39.527 98.884,39.111C98.884,38.691 98.758,38.351 98.506,38.091C98.254,37.831 97.884,37.701 97.396,37.701L95.986,37.701L95.986,40.491Z" style="fill-rule:nonzero;"/>
        <path d="M102.736,36.717L102.736,43.365L106.03,43.365L106.03,44.361L101.596,44.361L101.596,36.717L102.736,36.717Z" style="fill-rule:nonzero;"/>
        <path d="M110.092,44.517C109.44,44.517 108.86,44.369 108.352,44.073C107.844,43.777 107.445,43.335 107.155,42.747C106.865,42.159 106.72,41.425 106.72,40.545C106.72,39.649 106.865,38.908 107.155,38.322C107.445,37.736 107.844,37.299 108.352,37.011C108.86,36.723 109.44,36.579 110.092,36.579C110.748,36.579 111.331,36.725 111.841,37.017C112.351,37.309 112.751,37.75 113.041,38.34C113.331,38.93 113.476,39.665 113.476,40.545C113.476,41.433 113.331,42.172 113.041,42.762C112.751,43.352 112.351,43.792 111.841,44.082C111.331,44.372 110.748,44.517 110.092,44.517ZM110.092,43.473C110.772,43.473 111.309,43.223 111.703,42.723C112.097,42.223 112.294,41.493 112.294,40.533C112.294,39.597 112.097,38.874 111.703,38.364C111.309,37.854 110.772,37.599 110.092,37.599C109.424,37.599 108.892,37.855 108.496,38.367C108.1,38.879 107.902,39.605 107.902,40.545C107.902,41.497 108.1,42.223 108.496,42.723C108.892,43.223 109.424,43.473 110.092,43.473Z" style="fill-rule:nonzero;"/>
        <path d="M115.186,44.361L115.186,36.717L117.922,36.717C118.814,36.717 119.493,36.928 119.959,37.35C120.425,37.772 120.658,38.327 120.658,39.015C120.658,39.695 120.425,40.245 119.959,40.665C119.493,41.085 118.814,41.295 117.922,41.295L116.326,41.295L116.326,44.361L115.186,44.361ZM119.404,44.361L117.286,40.845L118.516,40.845L120.886,44.361L119.404,44.361ZM116.326,40.515L117.82,40.515C118.364,40.515 118.778,40.384 119.062,40.122C119.346,39.86 119.488,39.521 119.488,39.105C119.488,38.677 119.355,38.336 119.089,38.082C118.823,37.828 118.434,37.701 117.922,37.701L116.326,37.701L116.326,40.515Z" style="fill-rule:nonzero;"/>
        <path d="M122.632,44.361L122.632,36.717L127.432,36.717L127.432,37.701L123.772,37.701L123.772,40.029L127.216,40.029L127.216,41.013L123.772,41.013L123.772,43.365L127.432,43.365L127.432,44.361L122.632,44.361Z" style="fill-rule:nonzero;"/>
        <path d="M129.466,44.361L129.466,36.717L132.202,36.717C133.094,36.717 133.773,36.928 134.239,37.35C134.705,37.772 134.938,38.327 134.938,39.015C134.938,39.695 134.705,40.245 134.239,40.665C133.773,41.085 133.094,41.295 132.202,41.295L130.606,41.295L130.606,44.361L129.466,44.361ZM133.684,44.361L131.566,40.845L132.796,40.845L135.166,44.361L133.684,44.361ZM130.606,40.515L132.1,40.515C132.644,40.515 133.058,40.384 133.342,40.122C133.626,39.86 133.768,39.521 133.768,39.105C133.768,38.677 133.635,38.336 133.369,38.082C133.103,37.828 132.714,37.701 132.202,37.701L130.606,37.701L130.606,40.515Z" style="fill-rule:nonzero;"/>
    </g>
    <g transform="matrix(1.32828,0,0,1.32828,-77.6221,-17.5944)">
        <path d="M58.438,44.361L61.09,36.573L62.866,36.573L65.41,44.361L63.922,44.361L63.382,42.681L60.49,42.681L59.938,44.361L58.438,44.361ZM60.85,41.613L63.046,41.613L61.954,38.265L60.85,41.613Z" style="fill-rule:nonzero;"/>
        <path d="M66.748,44.361L66.748,36.573L69.628,36.573C70.56,36.573 71.275,36.791 71.773,37.227C72.271,37.663 72.52,38.241 72.52,38.961C72.52,39.669 72.271,40.24 71.773,40.674C71.275,41.108 70.56,41.325 69.628,41.325L68.164,41.325L68.164,44.361L66.748,44.361ZM70.96,44.361L68.896,40.713L70.408,40.713L72.808,44.361L70.96,44.361ZM68.164,40.377L69.484,40.377C70.004,40.377 70.398,40.258 70.666,40.02C70.934,39.782 71.068,39.473 71.068,39.093C71.068,38.705 70.946,38.392 70.702,38.154C70.458,37.916 70.1,37.797 69.628,37.797L68.164,37.797L68.164,40.377Z" style="fill-rule:nonzero;"/>
        <path d="M73.378,37.797L73.378,36.573L79.618,36.573L79.618,37.797L76.888,37.797L77.206,37.473L77.206,44.361L75.79,44.361L75.79,37.473L76.108,37.797L73.378,37.797Z" style="fill-rule:nonzero;"/>
        <rect x="83.74" y="36.573" width="1.416" height="7.788" style="fill-rule:nonzero;"/>
        <path d="M87.322,36.573L88.87,36.573L92.41,42.129L92.302,42.129L92.302,36.573L93.718,36.573L93.718,44.361L92.278,44.361L88.51,38.469L88.738,38.469L88.738,44.361L87.322,44.361L87.322,36.573Z" style="fill-rule:nonzero;"/>
        <path d="M98.614,44.529C98.074,44.529 97.577,44.435 97.123,44.247C96.669,44.059 96.301,43.773 96.019,43.389C95.737,43.005 95.586,42.517 95.566,41.925L96.958,41.925C96.958,42.225 97.032,42.471 97.18,42.663C97.328,42.855 97.527,42.998 97.777,43.092C98.027,43.186 98.302,43.233 98.602,43.233C98.89,43.233 99.147,43.195 99.373,43.119C99.599,43.043 99.777,42.934 99.907,42.792C100.037,42.65 100.102,42.481 100.102,42.285C100.102,42.025 100.023,41.821 99.865,41.673C99.707,41.525 99.454,41.389 99.106,41.265L97.57,40.653C96.97,40.417 96.51,40.143 96.19,39.831C95.87,39.519 95.71,39.089 95.71,38.541C95.71,37.909 95.96,37.397 96.46,37.005C96.96,36.613 97.658,36.417 98.554,36.417C99.426,36.417 100.1,36.62 100.576,37.026C101.052,37.432 101.322,37.997 101.386,38.721L99.994,38.721C99.942,38.413 99.802,38.166 99.574,37.98C99.346,37.794 99.006,37.701 98.554,37.701C98.154,37.701 97.838,37.784 97.606,37.95C97.374,38.116 97.258,38.325 97.258,38.577C97.258,38.793 97.331,38.964 97.477,39.09C97.623,39.216 97.85,39.337 98.158,39.453L99.862,40.113C100.438,40.337 100.88,40.619 101.188,40.959C101.496,41.299 101.65,41.725 101.65,42.237C101.65,42.705 101.532,43.11 101.296,43.452C101.06,43.794 100.716,44.059 100.264,44.247C99.812,44.435 99.262,44.529 98.614,44.529Z" style="fill-rule:nonzero;"/>
        <path d="M102.46,37.797L102.46,36.573L108.7,36.573L108.7,37.797L105.97,37.797L106.288,37.473L106.288,44.361L104.872,44.361L104.872,37.473L105.19,37.797L102.46,37.797Z" style="fill-rule:nonzero;"/>
        <rect x="109.834" y="36.573" width="1.416" height="7.788" style="fill-rule:nonzero;"/>
        <path d="M112.396,37.797L112.396,36.573L118.636,36.573L118.636,37.797L115.906,37.797L116.224,37.473L116.224,44.361L114.808,44.361L114.808,37.473L115.126,37.797L112.396,37.797Z" style="fill-rule:nonzero;"/>
        <path d="M119.65,36.573L121.066,36.573L121.066,41.421C121.066,42.061 121.229,42.523 121.555,42.807C121.881,43.091 122.298,43.233 122.806,43.233C123.318,43.233 123.736,43.091 124.06,42.807C124.384,42.523 124.546,42.061 124.546,41.421L124.546,36.573L125.962,36.573L125.962,41.421C125.962,42.077 125.836,42.637 125.584,43.101C125.332,43.565 124.971,43.919 124.501,44.163C124.031,44.407 123.466,44.529 122.806,44.529C122.146,44.529 121.581,44.407 121.111,44.163C120.641,43.919 120.28,43.565 120.028,43.101C119.776,42.637 119.65,42.077 119.65,41.421L119.65,36.573Z" style="fill-rule:nonzero;"/>
        <path d="M126.958,37.797L126.958,36.573L133.198,36.573L133.198,37.797L130.468,37.797L130.786,37.473L130.786,44.361L129.37,44.361L129.37,37.473L129.688,37.797L126.958,37.797Z" style="fill-rule:nonzero;"/>
        <path d="M134.32,44.361L134.32,36.573L139.324,36.573L139.324,37.797L135.736,37.797L135.736,39.849L139.108,39.849L139.108,41.073L135.736,41.073L135.736,43.125L139.324,43.125L139.324,44.361L134.32,44.361Z" style="fill-rule:nonzero;"/>
        <path d="M147.286,44.529C146.594,44.529 145.983,44.377 145.453,44.073C144.923,43.769 144.508,43.315 144.208,42.711C143.908,42.107 143.758,41.357 143.758,40.461C143.758,39.549 143.908,38.794 144.208,38.196C144.508,37.598 144.923,37.152 145.453,36.858C145.983,36.564 146.594,36.417 147.286,36.417C147.982,36.417 148.596,36.568 149.128,36.87C149.66,37.172 150.076,37.623 150.376,38.223C150.676,38.823 150.826,39.569 150.826,40.461C150.826,41.369 150.676,42.125 150.376,42.729C150.076,43.333 149.66,43.784 149.128,44.082C148.596,44.38 147.982,44.529 147.286,44.529ZM147.286,43.245C147.922,43.245 148.427,43.005 148.801,42.525C149.175,42.045 149.362,41.353 149.362,40.449C149.362,39.577 149.175,38.899 148.801,38.415C148.427,37.931 147.922,37.689 147.286,37.689C146.662,37.689 146.162,37.932 145.786,38.418C145.41,38.904 145.222,39.585 145.222,40.461C145.222,41.361 145.41,42.05 145.786,42.528C146.162,43.006 146.662,43.245 147.286,43.245Z" style="fill-rule:nonzero;"/>
        <path d="M152.452,44.361L152.452,36.573L157.36,36.573L157.36,37.797L153.868,37.797L153.868,39.849L157.06,39.849L157.06,41.061L153.868,41.061L153.868,44.361L152.452,44.361Z" style="fill-rule:nonzero;"/>
        <path d="M164.782,44.529C164.098,44.529 163.503,44.366 162.997,44.04C162.491,43.714 162.098,43.247 161.818,42.639C161.538,42.031 161.398,41.301 161.398,40.449C161.398,39.569 161.543,38.83 161.833,38.232C162.123,37.634 162.523,37.182 163.033,36.876C163.543,36.57 164.126,36.417 164.782,36.417C165.69,36.417 166.399,36.637 166.909,37.077C167.419,37.517 167.746,38.089 167.89,38.793L166.378,39.069C166.254,38.661 166.056,38.331 165.784,38.079C165.512,37.827 165.178,37.701 164.782,37.701C164.434,37.701 164.12,37.802 163.84,38.004C163.56,38.206 163.337,38.511 163.171,38.919C163.005,39.327 162.922,39.837 162.922,40.449C162.922,41.025 162.995,41.521 163.141,41.937C163.287,42.353 163.498,42.673 163.774,42.897C164.05,43.121 164.386,43.233 164.782,43.233C165.29,43.233 165.683,43.098 165.961,42.828C166.239,42.558 166.378,42.213 166.378,41.793L167.89,41.793C167.89,42.373 167.765,42.866 167.515,43.272C167.265,43.678 166.908,43.989 166.444,44.205C165.98,44.421 165.426,44.529 164.782,44.529Z" style="fill-rule:nonzero;"/>
        <path d="M169.504,36.573L170.92,36.573L170.92,39.825L174.316,39.825L174.316,36.573L175.732,36.573L175.732,44.361L174.316,44.361L174.316,41.061L170.92,41.061L170.92,44.361L169.504,44.361L169.504,36.573Z" style="fill-rule:nonzero;"/>
        <rect x="177.922" y="36.573" width="1.416" height="7.788" style="fill-rule:nonzero;"/>
        <path d="M184.36,44.529C183.676,44.529 183.081,44.366 182.575,44.04C182.069,43.714 181.676,43.247 181.396,42.639C181.116,42.031 180.976,41.301 180.976,40.449C180.976,39.569 181.121,38.83 181.411,38.232C181.701,37.634 182.101,37.182 182.611,36.876C183.121,36.57 183.704,36.417 184.36,36.417C185.268,36.417 185.977,36.637 186.487,37.077C186.997,37.517 187.324,38.089 187.468,38.793L185.956,39.069C185.832,38.661 185.634,38.331 185.362,38.079C185.09,37.827 184.756,37.701 184.36,37.701C184.012,37.701 183.698,37.802 183.418,38.004C183.138,38.206 182.915,38.511 182.749,38.919C182.583,39.327 182.5,39.837 182.5,40.449C182.5,41.025 182.573,41.521 182.719,41.937C182.865,42.353 183.076,42.673 183.352,42.897C183.628,43.121 183.964,43.233 184.36,43.233C184.868,43.233 185.261,43.098 185.539,42.828C185.817,42.558 185.956,42.213 185.956,41.793L187.468,41.793C187.468,42.373 187.343,42.866 187.093,43.272C186.843,43.678 186.486,43.989 186.022,44.205C185.558,44.421 185.004,44.529 184.36,44.529Z" style="fill-rule:nonzero;"/>
        <path d="M188.23,44.361L190.882,36.573L192.658,36.573L195.202,44.361L193.714,44.361L193.174,42.681L190.282,42.681L189.73,44.361L188.23,44.361ZM190.642,41.613L192.838,41.613L191.746,38.265L190.642,41.613Z" style="fill-rule:nonzero;"/>
        <path d="M199.384,44.529C198.748,44.529 198.174,44.361 197.662,44.025C197.15,43.689 196.743,43.22 196.441,42.618C196.139,42.016 195.988,41.313 195.988,40.509C195.988,39.873 196.081,39.303 196.267,38.799C196.453,38.295 196.712,37.865 197.044,37.509C197.376,37.153 197.766,36.882 198.214,36.696C198.662,36.51 199.148,36.417 199.672,36.417C200.4,36.417 201.011,36.575 201.505,36.891C201.999,37.207 202.384,37.705 202.66,38.385L201.208,38.721C201.004,38.389 200.769,38.136 200.503,37.962C200.237,37.788 199.936,37.701 199.6,37.701C199.216,37.701 198.866,37.814 198.55,38.04C198.234,38.266 197.982,38.589 197.794,39.009C197.606,39.429 197.512,39.929 197.512,40.509C197.512,41.053 197.595,41.529 197.761,41.937C197.927,42.345 198.16,42.663 198.46,42.891C198.76,43.119 199.108,43.233 199.504,43.233C199.84,43.233 200.141,43.158 200.407,43.008C200.673,42.858 200.883,42.643 201.037,42.363C201.191,42.083 201.268,41.745 201.268,41.349L201.58,41.349C201.58,41.997 201.503,42.559 201.349,43.035C201.195,43.511 200.956,43.879 200.632,44.139C200.308,44.399 199.892,44.529 199.384,44.529ZM201.472,44.361L201.268,42.645L201.268,41.301L199.516,41.265L199.516,40.365L202.624,40.365L202.624,44.361L201.472,44.361Z" style="fill-rule:nonzero;"/>
        <path d="M207.592,44.529C206.9,44.529 206.289,44.377 205.759,44.073C205.229,43.769 204.814,43.315 204.514,42.711C204.214,42.107 204.064,41.357 204.064,40.461C204.064,39.549 204.214,38.794 204.514,38.196C204.814,37.598 205.229,37.152 205.759,36.858C206.289,36.564 206.9,36.417 207.592,36.417C208.288,36.417 208.902,36.568 209.434,36.87C209.966,37.172 210.382,37.623 210.682,38.223C210.982,38.823 211.132,39.569 211.132,40.461C211.132,41.369 210.982,42.125 210.682,42.729C210.382,43.333 209.966,43.784 209.434,44.082C208.902,44.38 208.288,44.529 207.592,44.529ZM207.592,43.245C208.228,43.245 208.733,43.005 209.107,42.525C209.481,42.045 209.668,41.353 209.668,40.449C209.668,39.577 209.481,38.899 209.107,38.415C208.733,37.931 208.228,37.689 207.592,37.689C206.968,37.689 206.468,37.932 206.092,38.418C205.716,38.904 205.528,39.585 205.528,40.461C205.528,41.361 205.716,42.05 206.092,42.528C206.468,43.006 206.968,43.245 207.592,43.245Z" style="fill-rule:nonzero;"/>
    </g>
</svg>
